<mxfile host="Electron" modified="2024-05-07T13:11:47.664Z" agent="Mozilla/5.0 (Windows NT 10.0; Win64; x64) AppleWebKit/537.36 (KHTML, like Gecko) draw.io/24.2.5 Chrome/120.0.6099.109 Electron/28.1.0 Safari/537.36" etag="qRyuveVe3rrjWehtu3dL" version="24.2.5" type="device">
  <diagram id="C5RBs43oDa-KdzZeNtuy" name="Page-1">
    <mxGraphModel dx="3134" dy="2222" grid="0" gridSize="9" guides="1" tooltips="1" connect="1" arrows="1" fold="1" page="1" pageScale="1" pageWidth="1654" pageHeight="1169" background="#DAF1FA" math="0" shadow="1">
      <root>
        <mxCell id="WIyWlLk6GJQsqaUBKTNV-0" />
        <mxCell id="WIyWlLk6GJQsqaUBKTNV-1" parent="WIyWlLk6GJQsqaUBKTNV-0" />
        <mxCell id="AKQ19clpOebeqkgwfnUP-69" value="&lt;font style=&quot;font-size: 36px;&quot;&gt;&lt;b&gt;&lt;sub&gt;ER Diagram of&amp;nbsp; Booking and Reservation Systems&lt;/sub&gt;&lt;/b&gt;&lt;/font&gt;" style="text;html=1;align=left;verticalAlign=middle;whiteSpace=wrap;rounded=1;labelBorderColor=none;labelBackgroundColor=none;textShadow=1;strokeColor=#d79b00;fillColor=#ffcd28;gradientColor=#ffa500;shadow=1;glass=1;" vertex="1" parent="WIyWlLk6GJQsqaUBKTNV-1">
          <mxGeometry x="19" y="24" width="739" height="56" as="geometry" />
        </mxCell>
        <mxCell id="AKQ19clpOebeqkgwfnUP-70" value="Users" style="whiteSpace=wrap;html=1;align=center;labelBackgroundColor=none;fillColor=#ffcd28;strokeColor=#d79b00;rounded=1;gradientColor=#ffa500;textShadow=0;labelBorderColor=none;" vertex="1" parent="WIyWlLk6GJQsqaUBKTNV-1">
          <mxGeometry x="363" y="378.32" width="100" height="40" as="geometry" />
        </mxCell>
        <mxCell id="AKQ19clpOebeqkgwfnUP-71" value="Services" style="whiteSpace=wrap;html=1;align=center;labelBackgroundColor=none;fillColor=#ffcd28;strokeColor=#d79b00;rounded=1;gradientColor=#ffa500;textShadow=0;labelBorderColor=none;" vertex="1" parent="WIyWlLk6GJQsqaUBKTNV-1">
          <mxGeometry x="946" y="382.32" width="100" height="40" as="geometry" />
        </mxCell>
        <mxCell id="AKQ19clpOebeqkgwfnUP-72" value="Booking" style="whiteSpace=wrap;html=1;align=center;labelBackgroundColor=none;fillColor=#ffcd28;strokeColor=#d79b00;rounded=1;gradientColor=#ffa500;textShadow=0;labelBorderColor=none;" vertex="1" parent="WIyWlLk6GJQsqaUBKTNV-1">
          <mxGeometry x="648" y="380.07" width="90" height="40" as="geometry" />
        </mxCell>
        <mxCell id="AKQ19clpOebeqkgwfnUP-73" value="Locations" style="whiteSpace=wrap;html=1;align=center;labelBackgroundColor=none;fillColor=#ffcd28;strokeColor=#d79b00;rounded=1;gradientColor=#ffa500;textShadow=0;labelBorderColor=none;" vertex="1" parent="WIyWlLk6GJQsqaUBKTNV-1">
          <mxGeometry x="946" y="617.32" width="100" height="40" as="geometry" />
        </mxCell>
        <mxCell id="AKQ19clpOebeqkgwfnUP-74" value="Reviews" style="whiteSpace=wrap;html=1;align=center;labelBackgroundColor=none;fillColor=#ffcd28;strokeColor=#d79b00;rounded=1;gradientColor=#ffa500;textShadow=0;labelBorderColor=none;" vertex="1" parent="WIyWlLk6GJQsqaUBKTNV-1">
          <mxGeometry x="369" y="611.32" width="100" height="40" as="geometry" />
        </mxCell>
        <mxCell id="AKQ19clpOebeqkgwfnUP-75" value="Notifications" style="whiteSpace=wrap;html=1;align=center;labelBackgroundColor=none;fillColor=#ffcd28;strokeColor=#d79b00;rounded=1;gradientColor=#ffa500;textShadow=0;labelBorderColor=none;" vertex="1" parent="WIyWlLk6GJQsqaUBKTNV-1">
          <mxGeometry x="363" y="166.32" width="100" height="40" as="geometry" />
        </mxCell>
        <mxCell id="AKQ19clpOebeqkgwfnUP-76" value="Payments" style="whiteSpace=wrap;html=1;align=center;labelBackgroundColor=none;fillColor=#ffcd28;strokeColor=#d79b00;rounded=1;gradientColor=#ffa500;textShadow=0;labelBorderColor=none;" vertex="1" parent="WIyWlLk6GJQsqaUBKTNV-1">
          <mxGeometry x="648" y="617.32" width="100" height="40" as="geometry" />
        </mxCell>
        <mxCell id="AKQ19clpOebeqkgwfnUP-77" value="Cancellation" style="whiteSpace=wrap;html=1;align=center;labelBackgroundColor=none;fillColor=#ffcd28;strokeColor=#d79b00;rounded=1;gradientColor=#ffa500;textShadow=0;labelBorderColor=none;" vertex="1" parent="WIyWlLk6GJQsqaUBKTNV-1">
          <mxGeometry x="649.5" y="158.82" width="100" height="40" as="geometry" />
        </mxCell>
        <mxCell id="AKQ19clpOebeqkgwfnUP-78" value="Invoices" style="whiteSpace=wrap;html=1;align=center;labelBackgroundColor=none;fillColor=#ffcd28;strokeColor=#d79b00;rounded=1;gradientColor=#ffa500;textShadow=0;labelBorderColor=none;" vertex="1" parent="WIyWlLk6GJQsqaUBKTNV-1">
          <mxGeometry x="185" y="675.32" width="100" height="40" as="geometry" />
        </mxCell>
        <mxCell id="AKQ19clpOebeqkgwfnUP-79" value="makes" style="rhombus;whiteSpace=wrap;html=1;labelBackgroundColor=none;rounded=0;fillColor=#1ba1e2;fontColor=#ffffff;strokeColor=#006EAF;textShadow=0;labelBorderColor=none;" vertex="1" parent="WIyWlLk6GJQsqaUBKTNV-1">
          <mxGeometry x="531" y="371.32" width="50" height="57.5" as="geometry" />
        </mxCell>
        <mxCell id="AKQ19clpOebeqkgwfnUP-80" value="has" style="shape=rhombus;perimeter=rhombusPerimeter;whiteSpace=wrap;html=1;align=center;fillColor=#1ba1e2;fontColor=#ffffff;strokeColor=#006EAF;textShadow=0;labelBorderColor=none;" vertex="1" parent="WIyWlLk6GJQsqaUBKTNV-1">
          <mxGeometry x="818" y="382.32" width="64" height="42" as="geometry" />
        </mxCell>
        <mxCell id="AKQ19clpOebeqkgwfnUP-81" value="have" style="shape=rhombus;perimeter=rhombusPerimeter;whiteSpace=wrap;html=1;align=center;fillColor=#1ba1e2;fontColor=#ffffff;strokeColor=#006EAF;textShadow=0;labelBorderColor=none;" vertex="1" parent="WIyWlLk6GJQsqaUBKTNV-1">
          <mxGeometry x="659.5" y="491.32" width="67" height="60" as="geometry" />
        </mxCell>
        <mxCell id="AKQ19clpOebeqkgwfnUP-82" value="have" style="shape=rhombus;perimeter=rhombusPerimeter;whiteSpace=wrap;html=1;align=center;fillColor=#1ba1e2;fontColor=#ffffff;strokeColor=#006EAF;textShadow=0;labelBorderColor=none;" vertex="1" parent="WIyWlLk6GJQsqaUBKTNV-1">
          <mxGeometry x="670" y="255.32" width="46" height="53" as="geometry" />
        </mxCell>
        <mxCell id="AKQ19clpOebeqkgwfnUP-83" value="recieves" style="shape=rhombus;perimeter=rhombusPerimeter;whiteSpace=wrap;html=1;align=center;fillColor=#1ba1e2;fontColor=#ffffff;strokeColor=#006EAF;textShadow=0;labelBorderColor=none;" vertex="1" parent="WIyWlLk6GJQsqaUBKTNV-1">
          <mxGeometry x="376" y="258.32" width="70" height="54" as="geometry" />
        </mxCell>
        <mxCell id="AKQ19clpOebeqkgwfnUP-84" value="has" style="shape=rhombus;perimeter=rhombusPerimeter;whiteSpace=wrap;html=1;align=center;fillColor=#1ba1e2;fontColor=#ffffff;strokeColor=#006EAF;textShadow=0;labelBorderColor=none;" vertex="1" parent="WIyWlLk6GJQsqaUBKTNV-1">
          <mxGeometry x="969.25" y="489.32" width="53.5" height="53" as="geometry" />
        </mxCell>
        <mxCell id="AKQ19clpOebeqkgwfnUP-85" value="have" style="shape=rhombus;perimeter=rhombusPerimeter;whiteSpace=wrap;html=1;align=center;rotation=30;fillColor=#1ba1e2;fontColor=#ffffff;strokeColor=#006EAF;textShadow=0;labelBorderColor=none;" vertex="1" parent="WIyWlLk6GJQsqaUBKTNV-1">
          <mxGeometry x="285" y="531.32" width="67" height="60" as="geometry" />
        </mxCell>
        <mxCell id="AKQ19clpOebeqkgwfnUP-86" value="makes" style="rhombus;whiteSpace=wrap;html=1;labelBackgroundColor=none;rounded=0;rotation=-45;fillColor=#1ba1e2;fontColor=#ffffff;strokeColor=#006EAF;textShadow=0;labelBorderColor=none;" vertex="1" parent="WIyWlLk6GJQsqaUBKTNV-1">
          <mxGeometry x="537.94" y="497.56" width="61" height="58.99" as="geometry" />
        </mxCell>
        <mxCell id="AKQ19clpOebeqkgwfnUP-87" value="gives" style="shape=rhombus;perimeter=rhombusPerimeter;whiteSpace=wrap;html=1;align=center;fillColor=#1ba1e2;fontColor=#ffffff;strokeColor=#006EAF;textShadow=0;labelBorderColor=none;" vertex="1" parent="WIyWlLk6GJQsqaUBKTNV-1">
          <mxGeometry x="386.5" y="487.32" width="49" height="55" as="geometry" />
        </mxCell>
        <mxCell id="AKQ19clpOebeqkgwfnUP-88" value="UserID" style="ellipse;whiteSpace=wrap;html=1;align=center;fontStyle=4;fillColor=#f8cecc;gradientColor=#ea6b66;strokeColor=#b85450;strokeWidth=1;textShadow=0;labelBorderColor=none;" vertex="1" parent="WIyWlLk6GJQsqaUBKTNV-1">
          <mxGeometry x="308" y="319.32" width="50" height="30" as="geometry" />
        </mxCell>
        <mxCell id="AKQ19clpOebeqkgwfnUP-89" value="Name" style="ellipse;whiteSpace=wrap;html=1;align=center;fillColor=#f8cecc;gradientColor=#ea6b66;strokeColor=#361817;textShadow=0;labelBorderColor=none;" vertex="1" parent="WIyWlLk6GJQsqaUBKTNV-1">
          <mxGeometry x="271" y="355.32" width="48" height="33" as="geometry" />
        </mxCell>
        <mxCell id="AKQ19clpOebeqkgwfnUP-90" value="Email" style="ellipse;whiteSpace=wrap;html=1;align=center;fillColor=#f8cecc;gradientColor=#ea6b66;strokeColor=#361817;textShadow=0;labelBorderColor=none;" vertex="1" parent="WIyWlLk6GJQsqaUBKTNV-1">
          <mxGeometry x="265.5" y="403.32" width="46" height="34.75" as="geometry" />
        </mxCell>
        <mxCell id="AKQ19clpOebeqkgwfnUP-91" value="Phone" style="ellipse;shape=doubleEllipse;margin=3;whiteSpace=wrap;html=1;align=center;fillColor=#f8cecc;gradientColor=#ea6b66;strokeColor=#361817;textShadow=0;labelBorderColor=none;" vertex="1" parent="WIyWlLk6GJQsqaUBKTNV-1">
          <mxGeometry x="304" y="438.07" width="54" height="38" as="geometry" />
        </mxCell>
        <mxCell id="AKQ19clpOebeqkgwfnUP-92" style="edgeStyle=orthogonalEdgeStyle;rounded=0;orthogonalLoop=1;jettySize=auto;html=1;exitX=0.5;exitY=1;exitDx=0;exitDy=0;textShadow=0;labelBorderColor=none;" edge="1" parent="WIyWlLk6GJQsqaUBKTNV-1" source="AKQ19clpOebeqkgwfnUP-91" target="AKQ19clpOebeqkgwfnUP-91">
          <mxGeometry relative="1" as="geometry" />
        </mxCell>
        <mxCell id="AKQ19clpOebeqkgwfnUP-93" value="" style="endArrow=none;html=1;rounded=0;entryX=0;entryY=0;entryDx=0;entryDy=0;textShadow=0;labelBorderColor=none;" edge="1" parent="WIyWlLk6GJQsqaUBKTNV-1" target="AKQ19clpOebeqkgwfnUP-70">
          <mxGeometry relative="1" as="geometry">
            <mxPoint x="341" y="346.55" as="sourcePoint" />
            <mxPoint x="456" y="382.32" as="targetPoint" />
          </mxGeometry>
        </mxCell>
        <mxCell id="AKQ19clpOebeqkgwfnUP-94" value="" style="endArrow=none;html=1;rounded=0;textShadow=0;labelBorderColor=none;" edge="1" parent="WIyWlLk6GJQsqaUBKTNV-1">
          <mxGeometry relative="1" as="geometry">
            <mxPoint x="311.5" y="420.07" as="sourcePoint" />
            <mxPoint x="362" y="413.32" as="targetPoint" />
          </mxGeometry>
        </mxCell>
        <mxCell id="AKQ19clpOebeqkgwfnUP-95" value="" style="endArrow=none;html=1;rounded=0;exitX=1;exitY=1;exitDx=0;exitDy=0;textShadow=0;labelBorderColor=none;" edge="1" parent="WIyWlLk6GJQsqaUBKTNV-1" source="AKQ19clpOebeqkgwfnUP-89">
          <mxGeometry relative="1" as="geometry">
            <mxPoint x="359" y="364.55" as="sourcePoint" />
            <mxPoint x="363" y="395.32" as="targetPoint" />
          </mxGeometry>
        </mxCell>
        <mxCell id="AKQ19clpOebeqkgwfnUP-96" value="" style="endArrow=none;html=1;rounded=0;entryX=0;entryY=1;entryDx=0;entryDy=0;textShadow=0;labelBorderColor=none;" edge="1" parent="WIyWlLk6GJQsqaUBKTNV-1" target="AKQ19clpOebeqkgwfnUP-70">
          <mxGeometry relative="1" as="geometry">
            <mxPoint x="339" y="438.82" as="sourcePoint" />
            <mxPoint x="389.5" y="432.07" as="targetPoint" />
          </mxGeometry>
        </mxCell>
        <mxCell id="AKQ19clpOebeqkgwfnUP-97" value="S-ID" style="ellipse;whiteSpace=wrap;html=1;align=center;fontStyle=4;fillColor=#f8cecc;gradientColor=#ea6b66;strokeColor=#291919;textShadow=0;labelBorderColor=none;" vertex="1" parent="WIyWlLk6GJQsqaUBKTNV-1">
          <mxGeometry x="933" y="308.32" width="57" height="39" as="geometry" />
        </mxCell>
        <mxCell id="AKQ19clpOebeqkgwfnUP-98" value="Name" style="ellipse;whiteSpace=wrap;html=1;align=center;fillColor=#f8cecc;gradientColor=#ea6b66;strokeColor=#241010;textShadow=0;labelBorderColor=none;" vertex="1" parent="WIyWlLk6GJQsqaUBKTNV-1">
          <mxGeometry x="990" y="276.32" width="66" height="40" as="geometry" />
        </mxCell>
        <mxCell id="AKQ19clpOebeqkgwfnUP-99" value="Description" style="ellipse;whiteSpace=wrap;html=1;align=center;fillColor=#f8cecc;gradientColor=#ea6b66;strokeColor=#241010;textShadow=0;labelBorderColor=none;" vertex="1" parent="WIyWlLk6GJQsqaUBKTNV-1">
          <mxGeometry x="1079" y="347.32" width="66" height="40" as="geometry" />
        </mxCell>
        <mxCell id="AKQ19clpOebeqkgwfnUP-100" value="Price" style="ellipse;whiteSpace=wrap;html=1;align=center;fillColor=#f8cecc;gradientColor=#ea6b66;strokeColor=#241010;textShadow=0;labelBorderColor=none;" vertex="1" parent="WIyWlLk6GJQsqaUBKTNV-1">
          <mxGeometry x="1064" y="291.32" width="48" height="40" as="geometry" />
        </mxCell>
        <mxCell id="AKQ19clpOebeqkgwfnUP-101" value="" style="endArrow=none;html=1;rounded=0;entryX=0.25;entryY=0;entryDx=0;entryDy=0;textShadow=0;labelBorderColor=none;" edge="1" parent="WIyWlLk6GJQsqaUBKTNV-1" target="AKQ19clpOebeqkgwfnUP-71">
          <mxGeometry relative="1" as="geometry">
            <mxPoint x="963" y="349.32" as="sourcePoint" />
            <mxPoint x="1123" y="349.32" as="targetPoint" />
          </mxGeometry>
        </mxCell>
        <mxCell id="AKQ19clpOebeqkgwfnUP-102" value="" style="endArrow=none;html=1;rounded=0;exitX=0;exitY=1;exitDx=0;exitDy=0;entryX=0.842;entryY=0.005;entryDx=0;entryDy=0;entryPerimeter=0;textShadow=0;labelBorderColor=none;" edge="1" parent="WIyWlLk6GJQsqaUBKTNV-1" source="AKQ19clpOebeqkgwfnUP-100" target="AKQ19clpOebeqkgwfnUP-71">
          <mxGeometry relative="1" as="geometry">
            <mxPoint x="1082" y="331.32" as="sourcePoint" />
            <mxPoint x="1035" y="379.32" as="targetPoint" />
          </mxGeometry>
        </mxCell>
        <mxCell id="AKQ19clpOebeqkgwfnUP-103" value="" style="endArrow=none;html=1;rounded=0;entryX=0.606;entryY=-0.015;entryDx=0;entryDy=0;entryPerimeter=0;textShadow=0;labelBorderColor=none;" edge="1" parent="WIyWlLk6GJQsqaUBKTNV-1" target="AKQ19clpOebeqkgwfnUP-71">
          <mxGeometry relative="1" as="geometry">
            <mxPoint x="1025" y="316.32" as="sourcePoint" />
            <mxPoint x="1010" y="377.32" as="targetPoint" />
            <Array as="points" />
          </mxGeometry>
        </mxCell>
        <mxCell id="AKQ19clpOebeqkgwfnUP-104" value="" style="endArrow=none;html=1;rounded=0;exitX=0;exitY=0.5;exitDx=0;exitDy=0;entryX=1;entryY=0;entryDx=0;entryDy=0;textShadow=0;labelBorderColor=none;" edge="1" parent="WIyWlLk6GJQsqaUBKTNV-1" source="AKQ19clpOebeqkgwfnUP-99" target="AKQ19clpOebeqkgwfnUP-71">
          <mxGeometry relative="1" as="geometry">
            <mxPoint x="1080" y="334.32" as="sourcePoint" />
            <mxPoint x="1044" y="388.32" as="targetPoint" />
          </mxGeometry>
        </mxCell>
        <mxCell id="AKQ19clpOebeqkgwfnUP-105" value="" style="endArrow=none;html=1;rounded=0;exitX=0.5;exitY=0;exitDx=0;exitDy=0;textShadow=0;labelBorderColor=none;" edge="1" parent="WIyWlLk6GJQsqaUBKTNV-1" source="AKQ19clpOebeqkgwfnUP-83">
          <mxGeometry relative="1" as="geometry">
            <mxPoint x="295" y="223.32" as="sourcePoint" />
            <mxPoint x="410" y="209.32" as="targetPoint" />
          </mxGeometry>
        </mxCell>
        <mxCell id="AKQ19clpOebeqkgwfnUP-106" value="&lt;span style=&quot;font-size: 14px;&quot;&gt;1&lt;/span&gt;" style="resizable=0;html=1;whiteSpace=wrap;align=right;verticalAlign=bottom;textShadow=0;labelBorderColor=none;" connectable="0" vertex="1" parent="AKQ19clpOebeqkgwfnUP-105">
          <mxGeometry x="1" relative="1" as="geometry">
            <mxPoint x="15" y="167" as="offset" />
          </mxGeometry>
        </mxCell>
        <mxCell id="AKQ19clpOebeqkgwfnUP-107" value="" style="endArrow=none;html=1;rounded=0;entryX=0.5;entryY=1;entryDx=0;entryDy=0;textShadow=0;labelBorderColor=none;" edge="1" parent="WIyWlLk6GJQsqaUBKTNV-1" target="AKQ19clpOebeqkgwfnUP-83">
          <mxGeometry relative="1" as="geometry">
            <mxPoint x="411" y="376.32" as="sourcePoint" />
            <mxPoint x="411" y="319.32" as="targetPoint" />
            <Array as="points">
              <mxPoint x="410.5" y="336.32" />
            </Array>
          </mxGeometry>
        </mxCell>
        <mxCell id="AKQ19clpOebeqkgwfnUP-108" value="&lt;span style=&quot;font-size: 14px;&quot;&gt;M&lt;/span&gt;" style="resizable=0;html=1;whiteSpace=wrap;align=right;verticalAlign=bottom;textShadow=0;labelBorderColor=none;" connectable="0" vertex="1" parent="AKQ19clpOebeqkgwfnUP-107">
          <mxGeometry x="1" relative="1" as="geometry">
            <mxPoint x="20" y="-79" as="offset" />
          </mxGeometry>
        </mxCell>
        <mxCell id="AKQ19clpOebeqkgwfnUP-109" value="Message" style="ellipse;whiteSpace=wrap;html=1;align=center;fillColor=#f8cecc;gradientColor=#ea6b66;strokeColor=#361817;textShadow=0;labelBorderColor=none;" vertex="1" parent="WIyWlLk6GJQsqaUBKTNV-1">
          <mxGeometry x="471.44000000000005" y="230.32" width="66.5" height="38" as="geometry" />
        </mxCell>
        <mxCell id="AKQ19clpOebeqkgwfnUP-110" value="U-ID" style="ellipse;whiteSpace=wrap;html=1;align=center;fillColor=#f8cecc;gradientColor=#ea6b66;strokeColor=#361817;rotation=-30;textShadow=0;labelBorderColor=none;" vertex="1" parent="WIyWlLk6GJQsqaUBKTNV-1">
          <mxGeometry x="282" y="236.32" width="48" height="33" as="geometry" />
        </mxCell>
        <mxCell id="AKQ19clpOebeqkgwfnUP-111" value="N-ID" style="ellipse;whiteSpace=wrap;html=1;align=center;fontStyle=4;fillColor=#f8cecc;gradientColor=#ea6b66;strokeColor=#3D1C1B;rotation=5;direction=south;textShadow=0;labelBorderColor=none;" vertex="1" parent="WIyWlLk6GJQsqaUBKTNV-1">
          <mxGeometry x="251.03999999999996" y="150" width="62.15" height="36.5" as="geometry" />
        </mxCell>
        <mxCell id="AKQ19clpOebeqkgwfnUP-112" value="" style="endArrow=none;html=1;rounded=0;exitX=1;exitY=0.5;exitDx=0;exitDy=0;entryX=0;entryY=1;entryDx=0;entryDy=0;textShadow=0;labelBorderColor=none;" edge="1" parent="WIyWlLk6GJQsqaUBKTNV-1" source="AKQ19clpOebeqkgwfnUP-110" target="AKQ19clpOebeqkgwfnUP-75">
          <mxGeometry relative="1" as="geometry">
            <mxPoint x="283" y="222.32" as="sourcePoint" />
            <mxPoint x="363" y="207.32" as="targetPoint" />
          </mxGeometry>
        </mxCell>
        <mxCell id="AKQ19clpOebeqkgwfnUP-113" value="" style="endArrow=none;html=1;rounded=0;entryX=0;entryY=0;entryDx=0;entryDy=0;exitX=1;exitY=0.5;exitDx=0;exitDy=0;textShadow=0;labelBorderColor=none;" edge="1" parent="WIyWlLk6GJQsqaUBKTNV-1" target="AKQ19clpOebeqkgwfnUP-109">
          <mxGeometry relative="1" as="geometry">
            <mxPoint x="454" y="206.32" as="sourcePoint" />
            <mxPoint x="498" y="202.32" as="targetPoint" />
          </mxGeometry>
        </mxCell>
        <mxCell id="AKQ19clpOebeqkgwfnUP-114" value="" style="endArrow=none;html=1;rounded=0;exitX=0.5;exitY=0;exitDx=0;exitDy=0;entryX=0;entryY=0.25;entryDx=0;entryDy=0;textShadow=0;labelBorderColor=none;" edge="1" parent="WIyWlLk6GJQsqaUBKTNV-1" source="AKQ19clpOebeqkgwfnUP-111" target="AKQ19clpOebeqkgwfnUP-75">
          <mxGeometry relative="1" as="geometry">
            <mxPoint x="337" y="208.32" as="sourcePoint" />
            <mxPoint x="363" y="206.32" as="targetPoint" />
          </mxGeometry>
        </mxCell>
        <mxCell id="AKQ19clpOebeqkgwfnUP-115" value="B-ID" style="ellipse;whiteSpace=wrap;html=1;align=center;fillColor=#f8cecc;gradientColor=#ea6b66;strokeColor=#361817;textShadow=0;labelBorderColor=none;" vertex="1" parent="WIyWlLk6GJQsqaUBKTNV-1">
          <mxGeometry x="578" y="223.32" width="50" height="38" as="geometry" />
        </mxCell>
        <mxCell id="AKQ19clpOebeqkgwfnUP-116" value="C-ID" style="ellipse;whiteSpace=wrap;html=1;align=center;fontStyle=4;fillColor=#f8cecc;gradientColor=#ea6b66;strokeColor=#4F2422;textShadow=0;labelBorderColor=none;" vertex="1" parent="WIyWlLk6GJQsqaUBKTNV-1">
          <mxGeometry x="560" y="160.32" width="51" height="37" as="geometry" />
        </mxCell>
        <mxCell id="AKQ19clpOebeqkgwfnUP-117" value="C-Date" style="ellipse;whiteSpace=wrap;html=1;align=center;fillColor=#f8cecc;gradientColor=#ea6b66;strokeColor=#361817;textShadow=0;labelBorderColor=none;" vertex="1" parent="WIyWlLk6GJQsqaUBKTNV-1">
          <mxGeometry x="778" y="233.32" width="57.5" height="35" as="geometry" />
        </mxCell>
        <mxCell id="AKQ19clpOebeqkgwfnUP-118" value="Refund_&lt;div&gt;Amount&lt;/div&gt;" style="ellipse;whiteSpace=wrap;html=1;align=center;fillColor=#f8cecc;gradientColor=#ea6b66;strokeColor=#361817;textShadow=0;labelBorderColor=none;" vertex="1" parent="WIyWlLk6GJQsqaUBKTNV-1">
          <mxGeometry x="788" y="157.32" width="64" height="48" as="geometry" />
        </mxCell>
        <mxCell id="AKQ19clpOebeqkgwfnUP-119" value="" style="endArrow=none;html=1;rounded=0;entryX=0;entryY=0.5;entryDx=0;entryDy=0;exitX=1;exitY=0.5;exitDx=0;exitDy=0;textShadow=0;labelBorderColor=none;" edge="1" parent="WIyWlLk6GJQsqaUBKTNV-1" source="AKQ19clpOebeqkgwfnUP-116" target="AKQ19clpOebeqkgwfnUP-77">
          <mxGeometry relative="1" as="geometry">
            <mxPoint x="611" y="183.32" as="sourcePoint" />
            <mxPoint x="771" y="183.32" as="targetPoint" />
          </mxGeometry>
        </mxCell>
        <mxCell id="AKQ19clpOebeqkgwfnUP-120" value="" style="endArrow=none;html=1;rounded=0;entryX=0;entryY=1;entryDx=0;entryDy=0;exitX=1;exitY=0;exitDx=0;exitDy=0;textShadow=0;labelBorderColor=none;" edge="1" parent="WIyWlLk6GJQsqaUBKTNV-1" source="AKQ19clpOebeqkgwfnUP-115" target="AKQ19clpOebeqkgwfnUP-77">
          <mxGeometry relative="1" as="geometry">
            <mxPoint x="623" y="236.32" as="sourcePoint" />
            <mxPoint x="662" y="237.32" as="targetPoint" />
          </mxGeometry>
        </mxCell>
        <mxCell id="AKQ19clpOebeqkgwfnUP-121" value="" style="endArrow=none;html=1;rounded=0;entryX=0;entryY=0.5;entryDx=0;entryDy=0;exitX=1;exitY=0.5;exitDx=0;exitDy=0;textShadow=0;labelBorderColor=none;" edge="1" parent="WIyWlLk6GJQsqaUBKTNV-1" source="AKQ19clpOebeqkgwfnUP-77" target="AKQ19clpOebeqkgwfnUP-118">
          <mxGeometry relative="1" as="geometry">
            <mxPoint x="754" y="215.5" as="sourcePoint" />
            <mxPoint x="783" y="186.5" as="targetPoint" />
          </mxGeometry>
        </mxCell>
        <mxCell id="AKQ19clpOebeqkgwfnUP-122" value="" style="endArrow=none;html=1;rounded=0;entryX=1;entryY=1;entryDx=0;entryDy=0;exitX=0;exitY=0;exitDx=0;exitDy=0;textShadow=0;labelBorderColor=none;" edge="1" parent="WIyWlLk6GJQsqaUBKTNV-1" source="AKQ19clpOebeqkgwfnUP-117" target="AKQ19clpOebeqkgwfnUP-77">
          <mxGeometry relative="1" as="geometry">
            <mxPoint x="720.5" y="229.32" as="sourcePoint" />
            <mxPoint x="749.5" y="200.32" as="targetPoint" />
          </mxGeometry>
        </mxCell>
        <mxCell id="AKQ19clpOebeqkgwfnUP-123" value="" style="endArrow=none;html=1;rounded=0;exitX=0.5;exitY=0;exitDx=0;exitDy=0;entryX=0.5;entryY=1;entryDx=0;entryDy=0;textShadow=0;labelBorderColor=none;" edge="1" parent="WIyWlLk6GJQsqaUBKTNV-1" source="AKQ19clpOebeqkgwfnUP-84" target="AKQ19clpOebeqkgwfnUP-71">
          <mxGeometry relative="1" as="geometry">
            <mxPoint x="996.5" y="475.32" as="sourcePoint" />
            <mxPoint x="993" y="426.32" as="targetPoint" />
            <Array as="points" />
          </mxGeometry>
        </mxCell>
        <mxCell id="AKQ19clpOebeqkgwfnUP-124" value="&lt;span style=&quot;font-size: 14px;&quot;&gt;1&lt;/span&gt;" style="resizable=0;html=1;whiteSpace=wrap;align=right;verticalAlign=bottom;textShadow=0;labelBorderColor=none;" connectable="0" vertex="1" parent="AKQ19clpOebeqkgwfnUP-123">
          <mxGeometry x="1" relative="1" as="geometry">
            <mxPoint x="17" y="192" as="offset" />
          </mxGeometry>
        </mxCell>
        <mxCell id="AKQ19clpOebeqkgwfnUP-125" value="" style="endArrow=none;html=1;rounded=0;exitX=0.5;exitY=0;exitDx=0;exitDy=0;entryX=0.5;entryY=1;entryDx=0;entryDy=0;textShadow=0;labelBorderColor=none;" edge="1" parent="WIyWlLk6GJQsqaUBKTNV-1" source="AKQ19clpOebeqkgwfnUP-73" target="AKQ19clpOebeqkgwfnUP-84">
          <mxGeometry relative="1" as="geometry">
            <mxPoint x="996.25" y="601.07" as="sourcePoint" />
            <mxPoint x="996" y="555.32" as="targetPoint" />
            <Array as="points" />
          </mxGeometry>
        </mxCell>
        <mxCell id="AKQ19clpOebeqkgwfnUP-126" value="&lt;span style=&quot;font-size: 14px;&quot;&gt;M&lt;/span&gt;" style="resizable=0;html=1;whiteSpace=wrap;align=right;verticalAlign=bottom;textShadow=0;labelBorderColor=none;" connectable="0" vertex="1" parent="AKQ19clpOebeqkgwfnUP-125">
          <mxGeometry x="1" relative="1" as="geometry">
            <mxPoint x="23" y="-94" as="offset" />
          </mxGeometry>
        </mxCell>
        <mxCell id="AKQ19clpOebeqkgwfnUP-127" value="" style="endArrow=none;html=1;rounded=0;exitX=0;exitY=0.5;exitDx=0;exitDy=0;entryX=1;entryY=0.5;entryDx=0;entryDy=0;textShadow=0;labelBorderColor=none;" edge="1" parent="WIyWlLk6GJQsqaUBKTNV-1" source="AKQ19clpOebeqkgwfnUP-79" target="AKQ19clpOebeqkgwfnUP-70">
          <mxGeometry relative="1" as="geometry">
            <mxPoint x="499" y="430.07" as="sourcePoint" />
            <mxPoint x="498" y="370.07" as="targetPoint" />
          </mxGeometry>
        </mxCell>
        <mxCell id="AKQ19clpOebeqkgwfnUP-128" value="&lt;span style=&quot;font-size: 14px;&quot;&gt;1&lt;/span&gt;" style="resizable=0;html=1;whiteSpace=wrap;align=right;verticalAlign=bottom;textShadow=0;labelBorderColor=none;" connectable="0" vertex="1" parent="AKQ19clpOebeqkgwfnUP-127">
          <mxGeometry x="1" relative="1" as="geometry">
            <mxPoint x="18" y="-6" as="offset" />
          </mxGeometry>
        </mxCell>
        <mxCell id="AKQ19clpOebeqkgwfnUP-129" value="" style="endArrow=none;html=1;rounded=0;entryX=1;entryY=0.5;entryDx=0;entryDy=0;exitX=0;exitY=0.5;exitDx=0;exitDy=0;textShadow=0;labelBorderColor=none;" edge="1" parent="WIyWlLk6GJQsqaUBKTNV-1" source="AKQ19clpOebeqkgwfnUP-72" target="AKQ19clpOebeqkgwfnUP-79">
          <mxGeometry relative="1" as="geometry">
            <mxPoint x="647" y="400.32" as="sourcePoint" />
            <mxPoint x="611.5" y="369.82" as="targetPoint" />
            <Array as="points" />
          </mxGeometry>
        </mxCell>
        <mxCell id="AKQ19clpOebeqkgwfnUP-130" value="&lt;span style=&quot;font-size: 14px;&quot;&gt;M&lt;/span&gt;" style="resizable=0;html=1;whiteSpace=wrap;align=right;verticalAlign=bottom;textShadow=0;labelBorderColor=none;" connectable="0" vertex="1" parent="AKQ19clpOebeqkgwfnUP-129">
          <mxGeometry x="1" relative="1" as="geometry">
            <mxPoint x="60" y="-3" as="offset" />
          </mxGeometry>
        </mxCell>
        <mxCell id="AKQ19clpOebeqkgwfnUP-131" value="" style="endArrow=none;html=1;rounded=0;entryX=1;entryY=0.5;entryDx=0;entryDy=0;textShadow=0;labelBorderColor=none;" edge="1" parent="WIyWlLk6GJQsqaUBKTNV-1" source="AKQ19clpOebeqkgwfnUP-80">
          <mxGeometry relative="1" as="geometry">
            <mxPoint x="806" y="403.32" as="sourcePoint" />
            <mxPoint x="738" y="403.32" as="targetPoint" />
          </mxGeometry>
        </mxCell>
        <mxCell id="AKQ19clpOebeqkgwfnUP-132" value="&lt;span style=&quot;font-size: 14px;&quot;&gt;1&lt;/span&gt;" style="resizable=0;html=1;whiteSpace=wrap;align=right;verticalAlign=bottom;textShadow=0;labelBorderColor=none;" connectable="0" vertex="1" parent="AKQ19clpOebeqkgwfnUP-131">
          <mxGeometry x="1" relative="1" as="geometry">
            <mxPoint x="205" y="-3" as="offset" />
          </mxGeometry>
        </mxCell>
        <mxCell id="AKQ19clpOebeqkgwfnUP-133" value="" style="endArrow=none;html=1;rounded=0;exitX=0;exitY=0.5;exitDx=0;exitDy=0;entryX=1;entryY=0.5;entryDx=0;entryDy=0;textShadow=0;labelBorderColor=none;" edge="1" parent="WIyWlLk6GJQsqaUBKTNV-1" source="AKQ19clpOebeqkgwfnUP-71" target="AKQ19clpOebeqkgwfnUP-80">
          <mxGeometry relative="1" as="geometry">
            <mxPoint x="943" y="403.32" as="sourcePoint" />
            <mxPoint x="867" y="406.32" as="targetPoint" />
            <Array as="points" />
          </mxGeometry>
        </mxCell>
        <mxCell id="AKQ19clpOebeqkgwfnUP-134" value="&lt;span style=&quot;font-size: 14px;&quot;&gt;M&lt;/span&gt;" style="resizable=0;html=1;whiteSpace=wrap;align=right;verticalAlign=bottom;textShadow=0;labelBorderColor=none;" connectable="0" vertex="1" parent="AKQ19clpOebeqkgwfnUP-133">
          <mxGeometry x="1" relative="1" as="geometry">
            <mxPoint x="-113" y="-6" as="offset" />
          </mxGeometry>
        </mxCell>
        <mxCell id="AKQ19clpOebeqkgwfnUP-135" value="" style="endArrow=none;html=1;rounded=0;exitX=0.5;exitY=0;exitDx=0;exitDy=0;textShadow=0;labelBorderColor=none;" edge="1" parent="WIyWlLk6GJQsqaUBKTNV-1" source="AKQ19clpOebeqkgwfnUP-82">
          <mxGeometry relative="1" as="geometry">
            <mxPoint x="693.25" y="249.32" as="sourcePoint" />
            <mxPoint x="693" y="199.32" as="targetPoint" />
          </mxGeometry>
        </mxCell>
        <mxCell id="AKQ19clpOebeqkgwfnUP-136" value="&lt;span style=&quot;font-size: 14px;&quot;&gt;1&lt;/span&gt;" style="resizable=0;html=1;whiteSpace=wrap;align=right;verticalAlign=bottom;textShadow=0;labelBorderColor=none;" connectable="0" vertex="1" parent="AKQ19clpOebeqkgwfnUP-135">
          <mxGeometry x="1" relative="1" as="geometry">
            <mxPoint x="16" y="20" as="offset" />
          </mxGeometry>
        </mxCell>
        <mxCell id="AKQ19clpOebeqkgwfnUP-137" value="" style="endArrow=none;html=1;rounded=0;entryX=0.5;entryY=1;entryDx=0;entryDy=0;exitX=0.5;exitY=0;exitDx=0;exitDy=0;textShadow=0;labelBorderColor=none;" edge="1" parent="WIyWlLk6GJQsqaUBKTNV-1" source="AKQ19clpOebeqkgwfnUP-72">
          <mxGeometry relative="1" as="geometry">
            <mxPoint x="693.25" y="367.32" as="sourcePoint" />
            <mxPoint x="693.25" y="303.32" as="targetPoint" />
            <Array as="points">
              <mxPoint x="692.75" y="327.32" />
            </Array>
          </mxGeometry>
        </mxCell>
        <mxCell id="AKQ19clpOebeqkgwfnUP-138" value="&lt;span style=&quot;font-size: 14px;&quot;&gt;1&lt;/span&gt;" style="resizable=0;html=1;whiteSpace=wrap;align=right;verticalAlign=bottom;textShadow=0;labelBorderColor=none;" connectable="0" vertex="1" parent="WIyWlLk6GJQsqaUBKTNV-1">
          <mxGeometry x="708" y="376.32" as="geometry" />
        </mxCell>
        <mxCell id="AKQ19clpOebeqkgwfnUP-139" value="LocationID" style="ellipse;whiteSpace=wrap;html=1;align=center;fontStyle=4;fillColor=#f8cecc;gradientColor=#ea6b66;strokeColor=#1F0E0D;textShadow=0;labelBorderColor=none;" vertex="1" parent="WIyWlLk6GJQsqaUBKTNV-1">
          <mxGeometry x="1085" y="698.32" width="78" height="33" as="geometry" />
        </mxCell>
        <mxCell id="AKQ19clpOebeqkgwfnUP-140" value="Name" style="ellipse;whiteSpace=wrap;html=1;align=center;fillColor=#f8cecc;gradientColor=#ea6b66;strokeColor=#1F0E0D;textShadow=0;labelBorderColor=none;" vertex="1" parent="WIyWlLk6GJQsqaUBKTNV-1">
          <mxGeometry x="1079" y="645.32" width="54" height="40" as="geometry" />
        </mxCell>
        <mxCell id="AKQ19clpOebeqkgwfnUP-141" value="City" style="ellipse;whiteSpace=wrap;html=1;align=center;fillColor=#f8cecc;gradientColor=#ea6b66;strokeColor=#1F0E0D;textShadow=0;labelBorderColor=none;" vertex="1" parent="WIyWlLk6GJQsqaUBKTNV-1">
          <mxGeometry x="882" y="668.32" width="50" height="40" as="geometry" />
        </mxCell>
        <mxCell id="AKQ19clpOebeqkgwfnUP-142" value="Country" style="ellipse;whiteSpace=wrap;html=1;align=center;fillColor=#f8cecc;gradientColor=#ea6b66;strokeColor=#1F0E0D;textShadow=0;labelBorderColor=none;" vertex="1" parent="WIyWlLk6GJQsqaUBKTNV-1">
          <mxGeometry x="933" y="708.82" width="66" height="40" as="geometry" />
        </mxCell>
        <mxCell id="AKQ19clpOebeqkgwfnUP-143" value="" style="endArrow=none;html=1;rounded=0;exitX=0;exitY=0.5;exitDx=0;exitDy=0;entryX=1;entryY=0.75;entryDx=0;entryDy=0;textShadow=0;labelBorderColor=none;" edge="1" parent="WIyWlLk6GJQsqaUBKTNV-1" source="AKQ19clpOebeqkgwfnUP-140" target="AKQ19clpOebeqkgwfnUP-73">
          <mxGeometry relative="1" as="geometry">
            <mxPoint x="1079" y="630.32" as="sourcePoint" />
            <mxPoint x="1046" y="645.32" as="targetPoint" />
          </mxGeometry>
        </mxCell>
        <mxCell id="AKQ19clpOebeqkgwfnUP-144" value="" style="endArrow=none;html=1;rounded=0;exitX=0.5;exitY=0;exitDx=0;exitDy=0;entryX=1;entryY=0.75;entryDx=0;entryDy=0;textShadow=0;labelBorderColor=none;" edge="1" parent="WIyWlLk6GJQsqaUBKTNV-1" source="AKQ19clpOebeqkgwfnUP-142">
          <mxGeometry relative="1" as="geometry">
            <mxPoint x="1017" y="675.32" as="sourcePoint" />
            <mxPoint x="984" y="657.32" as="targetPoint" />
          </mxGeometry>
        </mxCell>
        <mxCell id="AKQ19clpOebeqkgwfnUP-145" value="" style="endArrow=none;html=1;rounded=0;entryX=1;entryY=0.75;entryDx=0;entryDy=0;exitX=0.383;exitY=0.035;exitDx=0;exitDy=0;exitPerimeter=0;textShadow=0;labelBorderColor=none;" edge="1" parent="WIyWlLk6GJQsqaUBKTNV-1" source="AKQ19clpOebeqkgwfnUP-165">
          <mxGeometry relative="1" as="geometry">
            <mxPoint x="1040.4813956238738" y="717.9171499970938" as="sourcePoint" />
            <mxPoint x="1017" y="657.32" as="targetPoint" />
          </mxGeometry>
        </mxCell>
        <mxCell id="AKQ19clpOebeqkgwfnUP-146" value="" style="endArrow=none;html=1;rounded=0;exitX=1;exitY=0;exitDx=0;exitDy=0;entryX=0;entryY=0.75;entryDx=0;entryDy=0;textShadow=0;labelBorderColor=none;" edge="1" parent="WIyWlLk6GJQsqaUBKTNV-1" source="AKQ19clpOebeqkgwfnUP-141" target="AKQ19clpOebeqkgwfnUP-73">
          <mxGeometry relative="1" as="geometry">
            <mxPoint x="982.5" y="675.32" as="sourcePoint" />
            <mxPoint x="950" y="653.32" as="targetPoint" />
          </mxGeometry>
        </mxCell>
        <mxCell id="AKQ19clpOebeqkgwfnUP-147" value="" style="endArrow=none;html=1;rounded=0;entryX=0.894;entryY=0.98;entryDx=0;entryDy=0;entryPerimeter=0;exitX=0;exitY=0;exitDx=0;exitDy=0;textShadow=0;labelBorderColor=none;" edge="1" parent="WIyWlLk6GJQsqaUBKTNV-1" source="AKQ19clpOebeqkgwfnUP-139" target="AKQ19clpOebeqkgwfnUP-73">
          <mxGeometry relative="1" as="geometry">
            <mxPoint x="1048" y="724.32" as="sourcePoint" />
            <mxPoint x="1026" y="666.32" as="targetPoint" />
          </mxGeometry>
        </mxCell>
        <mxCell id="AKQ19clpOebeqkgwfnUP-148" value="" style="endArrow=none;html=1;rounded=0;exitX=0.5;exitY=0;exitDx=0;exitDy=0;textShadow=0;labelBorderColor=none;" edge="1" parent="WIyWlLk6GJQsqaUBKTNV-1" source="AKQ19clpOebeqkgwfnUP-81">
          <mxGeometry relative="1" as="geometry">
            <mxPoint x="693" y="476.07" as="sourcePoint" />
            <mxPoint x="693" y="420.07" as="targetPoint" />
          </mxGeometry>
        </mxCell>
        <mxCell id="AKQ19clpOebeqkgwfnUP-149" value="&lt;span style=&quot;font-size: 14px;&quot;&gt;1&lt;/span&gt;" style="resizable=0;html=1;whiteSpace=wrap;align=right;verticalAlign=bottom;textShadow=0;labelBorderColor=none;" connectable="0" vertex="1" parent="AKQ19clpOebeqkgwfnUP-148">
          <mxGeometry x="1" relative="1" as="geometry">
            <mxPoint x="18" y="33" as="offset" />
          </mxGeometry>
        </mxCell>
        <mxCell id="AKQ19clpOebeqkgwfnUP-150" value="" style="endArrow=none;html=1;rounded=0;exitX=0.435;exitY=0;exitDx=0;exitDy=0;exitPerimeter=0;textShadow=0;labelBorderColor=none;" edge="1" parent="WIyWlLk6GJQsqaUBKTNV-1" source="AKQ19clpOebeqkgwfnUP-76">
          <mxGeometry relative="1" as="geometry">
            <mxPoint x="693" y="615.32" as="sourcePoint" />
            <mxPoint x="693" y="552.32" as="targetPoint" />
            <Array as="points">
              <mxPoint x="692.75" y="548.07" />
            </Array>
          </mxGeometry>
        </mxCell>
        <mxCell id="AKQ19clpOebeqkgwfnUP-151" value="&lt;span style=&quot;font-size: 14px;&quot;&gt;1&lt;/span&gt;" style="resizable=0;html=1;whiteSpace=wrap;align=right;verticalAlign=bottom;textShadow=0;labelBorderColor=none;" connectable="0" vertex="1" parent="WIyWlLk6GJQsqaUBKTNV-1">
          <mxGeometry x="712" y="595.32" as="geometry">
            <mxPoint x="-1" y="19" as="offset" />
          </mxGeometry>
        </mxCell>
        <mxCell id="AKQ19clpOebeqkgwfnUP-152" value="" style="endArrow=none;html=1;rounded=0;exitX=0.5;exitY=0;exitDx=0;exitDy=0;textShadow=0;labelBorderColor=none;" edge="1" parent="WIyWlLk6GJQsqaUBKTNV-1" source="AKQ19clpOebeqkgwfnUP-86">
          <mxGeometry relative="1" as="geometry">
            <mxPoint x="464" y="463.32" as="sourcePoint" />
            <mxPoint x="463" y="414.32" as="targetPoint" />
          </mxGeometry>
        </mxCell>
        <mxCell id="AKQ19clpOebeqkgwfnUP-153" value="&lt;span style=&quot;font-size: 14px;&quot;&gt;1&lt;/span&gt;" style="resizable=0;html=1;whiteSpace=wrap;align=right;verticalAlign=bottom;textShadow=0;labelBorderColor=none;" connectable="0" vertex="1" parent="AKQ19clpOebeqkgwfnUP-152">
          <mxGeometry x="1" relative="1" as="geometry">
            <mxPoint x="32" y="21" as="offset" />
          </mxGeometry>
        </mxCell>
        <mxCell id="AKQ19clpOebeqkgwfnUP-154" value="" style="endArrow=none;html=1;rounded=0;exitX=0;exitY=0;exitDx=0;exitDy=0;entryX=0.5;entryY=1;entryDx=0;entryDy=0;textShadow=0;labelBorderColor=none;" edge="1" parent="WIyWlLk6GJQsqaUBKTNV-1" source="AKQ19clpOebeqkgwfnUP-76" target="AKQ19clpOebeqkgwfnUP-86">
          <mxGeometry relative="1" as="geometry">
            <mxPoint x="464" y="581.32" as="sourcePoint" />
            <mxPoint x="492" y="519.32" as="targetPoint" />
            <Array as="points" />
          </mxGeometry>
        </mxCell>
        <mxCell id="AKQ19clpOebeqkgwfnUP-155" value="&lt;span style=&quot;font-size: 14px;&quot;&gt;M&lt;/span&gt;" style="resizable=0;html=1;whiteSpace=wrap;align=right;verticalAlign=bottom;textShadow=0;labelBorderColor=none;" connectable="0" vertex="1" parent="AKQ19clpOebeqkgwfnUP-154">
          <mxGeometry x="1" relative="1" as="geometry">
            <mxPoint x="68" y="58" as="offset" />
          </mxGeometry>
        </mxCell>
        <mxCell id="AKQ19clpOebeqkgwfnUP-156" value="" style="endArrow=none;html=1;rounded=0;exitX=0.5;exitY=0;exitDx=0;exitDy=0;textShadow=0;labelBorderColor=none;" edge="1" parent="WIyWlLk6GJQsqaUBKTNV-1" source="AKQ19clpOebeqkgwfnUP-87" target="AKQ19clpOebeqkgwfnUP-70">
          <mxGeometry relative="1" as="geometry">
            <mxPoint x="411.25" y="464.32" as="sourcePoint" />
            <mxPoint x="410.25" y="415.32" as="targetPoint" />
          </mxGeometry>
        </mxCell>
        <mxCell id="AKQ19clpOebeqkgwfnUP-157" value="&lt;span style=&quot;font-size: 14px;&quot;&gt;1&lt;/span&gt;" style="resizable=0;html=1;whiteSpace=wrap;align=right;verticalAlign=bottom;textShadow=0;labelBorderColor=none;" connectable="0" vertex="1" parent="AKQ19clpOebeqkgwfnUP-156">
          <mxGeometry x="1" relative="1" as="geometry">
            <mxPoint x="16" y="34" as="offset" />
          </mxGeometry>
        </mxCell>
        <mxCell id="AKQ19clpOebeqkgwfnUP-158" value="" style="endArrow=none;html=1;rounded=0;exitX=0.42;exitY=-0.045;exitDx=0;exitDy=0;exitPerimeter=0;textShadow=0;labelBorderColor=none;" edge="1" parent="WIyWlLk6GJQsqaUBKTNV-1" source="AKQ19clpOebeqkgwfnUP-74">
          <mxGeometry relative="1" as="geometry">
            <mxPoint x="411.25" y="582.32" as="sourcePoint" />
            <mxPoint x="411" y="539.32" as="targetPoint" />
            <Array as="points">
              <mxPoint x="410.75" y="542.32" />
            </Array>
          </mxGeometry>
        </mxCell>
        <mxCell id="AKQ19clpOebeqkgwfnUP-159" value="&lt;span style=&quot;font-size: 14px;&quot;&gt;M&lt;/span&gt;" style="resizable=0;html=1;whiteSpace=wrap;align=right;verticalAlign=bottom;textShadow=0;labelBorderColor=none;" connectable="0" vertex="1" parent="AKQ19clpOebeqkgwfnUP-158">
          <mxGeometry x="1" relative="1" as="geometry">
            <mxPoint x="22" y="56" as="offset" />
          </mxGeometry>
        </mxCell>
        <mxCell id="AKQ19clpOebeqkgwfnUP-160" value="Payment&lt;div&gt;Date&lt;/div&gt;" style="ellipse;whiteSpace=wrap;html=1;align=center;fillColor=#f8cecc;gradientColor=#ea6b66;strokeColor=#1F0E0D;textShadow=0;labelBorderColor=none;" vertex="1" parent="WIyWlLk6GJQsqaUBKTNV-1">
          <mxGeometry x="578" y="678.32" width="59" height="40" as="geometry" />
        </mxCell>
        <mxCell id="AKQ19clpOebeqkgwfnUP-161" value="P-ID" style="ellipse;whiteSpace=wrap;html=1;align=center;fontStyle=4;fillColor=#f8cecc;gradientColor=#ea6b66;strokeColor=#1F0E0D;textShadow=0;labelBorderColor=none;" vertex="1" parent="WIyWlLk6GJQsqaUBKTNV-1">
          <mxGeometry x="785" y="661.32" width="54" height="33" as="geometry" />
        </mxCell>
        <mxCell id="AKQ19clpOebeqkgwfnUP-162" value="Payment&lt;div&gt;Method&lt;/div&gt;" style="ellipse;whiteSpace=wrap;html=1;align=center;fillColor=#f8cecc;gradientColor=#ea6b66;strokeColor=#1F0E0D;textShadow=0;labelBorderColor=none;" vertex="1" parent="WIyWlLk6GJQsqaUBKTNV-1">
          <mxGeometry x="619" y="736.32" width="64" height="40" as="geometry" />
        </mxCell>
        <mxCell id="AKQ19clpOebeqkgwfnUP-163" value="Amount" style="ellipse;whiteSpace=wrap;html=1;align=center;fillColor=#f8cecc;gradientColor=#ea6b66;strokeColor=#1F0E0D;textShadow=0;labelBorderColor=none;" vertex="1" parent="WIyWlLk6GJQsqaUBKTNV-1">
          <mxGeometry x="757" y="715.32" width="50" height="40" as="geometry" />
        </mxCell>
        <mxCell id="AKQ19clpOebeqkgwfnUP-164" value="B-ID" style="ellipse;whiteSpace=wrap;html=1;align=center;fillColor=#f8cecc;gradientColor=#ea6b66;strokeColor=#1F0E0D;textShadow=0;labelBorderColor=none;" vertex="1" parent="WIyWlLk6GJQsqaUBKTNV-1">
          <mxGeometry x="699.5" y="746.32" width="50" height="40" as="geometry" />
        </mxCell>
        <mxCell id="AKQ19clpOebeqkgwfnUP-165" value="Address" style="ellipse;shape=doubleEllipse;margin=3;whiteSpace=wrap;html=1;align=center;fillColor=#f8cecc;gradientColor=#ea6b66;strokeColor=#291312;textShadow=0;labelBorderColor=none;" vertex="1" parent="WIyWlLk6GJQsqaUBKTNV-1">
          <mxGeometry x="1015" y="722.32" width="70" height="40" as="geometry" />
        </mxCell>
        <mxCell id="AKQ19clpOebeqkgwfnUP-166" value="" style="endArrow=none;html=1;rounded=0;exitX=1;exitY=0;exitDx=0;exitDy=0;entryX=0.035;entryY=0.95;entryDx=0;entryDy=0;entryPerimeter=0;textShadow=0;labelBorderColor=none;" edge="1" parent="WIyWlLk6GJQsqaUBKTNV-1" source="AKQ19clpOebeqkgwfnUP-160" target="AKQ19clpOebeqkgwfnUP-76">
          <mxGeometry relative="1" as="geometry">
            <mxPoint x="631.5" y="709.32" as="sourcePoint" />
            <mxPoint x="649.5" y="657.32" as="targetPoint" />
          </mxGeometry>
        </mxCell>
        <mxCell id="AKQ19clpOebeqkgwfnUP-167" value="" style="endArrow=none;html=1;rounded=0;exitX=0.619;exitY=0.085;exitDx=0;exitDy=0;entryX=0.25;entryY=1;entryDx=0;entryDy=0;exitPerimeter=0;textShadow=0;labelBorderColor=none;" edge="1" parent="WIyWlLk6GJQsqaUBKTNV-1" source="AKQ19clpOebeqkgwfnUP-162" target="AKQ19clpOebeqkgwfnUP-76">
          <mxGeometry relative="1" as="geometry">
            <mxPoint x="655" y="708.32" as="sourcePoint" />
            <mxPoint x="673" y="656.32" as="targetPoint" />
          </mxGeometry>
        </mxCell>
        <mxCell id="AKQ19clpOebeqkgwfnUP-168" value="" style="endArrow=none;html=1;rounded=0;exitX=0.5;exitY=0;exitDx=0;exitDy=0;entryX=0.658;entryY=0.96;entryDx=0;entryDy=0;entryPerimeter=0;textShadow=0;labelBorderColor=none;" edge="1" parent="WIyWlLk6GJQsqaUBKTNV-1" source="AKQ19clpOebeqkgwfnUP-164" target="AKQ19clpOebeqkgwfnUP-76">
          <mxGeometry relative="1" as="geometry">
            <mxPoint x="694" y="706.32" as="sourcePoint" />
            <mxPoint x="719" y="654.32" as="targetPoint" />
          </mxGeometry>
        </mxCell>
        <mxCell id="AKQ19clpOebeqkgwfnUP-169" value="" style="endArrow=none;html=1;rounded=0;exitX=0;exitY=0;exitDx=0;exitDy=0;entryX=0.858;entryY=0.98;entryDx=0;entryDy=0;entryPerimeter=0;textShadow=0;labelBorderColor=none;" edge="1" parent="WIyWlLk6GJQsqaUBKTNV-1" source="AKQ19clpOebeqkgwfnUP-163" target="AKQ19clpOebeqkgwfnUP-76">
          <mxGeometry relative="1" as="geometry">
            <mxPoint x="716" y="709.32" as="sourcePoint" />
            <mxPoint x="734" y="657.32" as="targetPoint" />
          </mxGeometry>
        </mxCell>
        <mxCell id="AKQ19clpOebeqkgwfnUP-170" value="" style="endArrow=none;html=1;rounded=0;exitX=0;exitY=0.5;exitDx=0;exitDy=0;entryX=0.99;entryY=0.9;entryDx=0;entryDy=0;entryPerimeter=0;textShadow=0;labelBorderColor=none;" edge="1" parent="WIyWlLk6GJQsqaUBKTNV-1" source="AKQ19clpOebeqkgwfnUP-161" target="AKQ19clpOebeqkgwfnUP-76">
          <mxGeometry relative="1" as="geometry">
            <mxPoint x="731.5" y="706.32" as="sourcePoint" />
            <mxPoint x="749.5" y="654.32" as="targetPoint" />
          </mxGeometry>
        </mxCell>
        <mxCell id="AKQ19clpOebeqkgwfnUP-171" value="" style="endArrow=none;html=1;rounded=0;exitX=0.5;exitY=0;exitDx=0;exitDy=0;textShadow=0;labelBorderColor=none;" edge="1" parent="WIyWlLk6GJQsqaUBKTNV-1" source="AKQ19clpOebeqkgwfnUP-85">
          <mxGeometry relative="1" as="geometry">
            <mxPoint x="381.25" y="489.07" as="sourcePoint" />
            <mxPoint x="383.25" y="420.07" as="targetPoint" />
          </mxGeometry>
        </mxCell>
        <mxCell id="AKQ19clpOebeqkgwfnUP-172" value="&lt;span style=&quot;font-size: 14px;&quot;&gt;1&lt;/span&gt;" style="resizable=0;html=1;whiteSpace=wrap;align=right;verticalAlign=bottom;textShadow=0;labelBorderColor=none;" connectable="0" vertex="1" parent="AKQ19clpOebeqkgwfnUP-171">
          <mxGeometry x="1" relative="1" as="geometry">
            <mxPoint x="6" y="37" as="offset" />
          </mxGeometry>
        </mxCell>
        <mxCell id="AKQ19clpOebeqkgwfnUP-173" value="" style="endArrow=none;html=1;rounded=0;entryX=0.5;entryY=1;entryDx=0;entryDy=0;exitX=0.892;exitY=-0.04;exitDx=0;exitDy=0;exitPerimeter=0;textShadow=0;labelBorderColor=none;" edge="1" parent="WIyWlLk6GJQsqaUBKTNV-1" source="AKQ19clpOebeqkgwfnUP-78" target="AKQ19clpOebeqkgwfnUP-85">
          <mxGeometry relative="1" as="geometry">
            <mxPoint x="381.25" y="611.07" as="sourcePoint" />
            <mxPoint x="381.25" y="541.07" as="targetPoint" />
            <Array as="points" />
          </mxGeometry>
        </mxCell>
        <mxCell id="AKQ19clpOebeqkgwfnUP-174" value="&lt;span style=&quot;font-size: 14px;&quot;&gt;M&lt;/span&gt;" style="resizable=0;html=1;whiteSpace=wrap;align=right;verticalAlign=bottom;textShadow=0;labelBorderColor=none;" connectable="0" vertex="1" parent="AKQ19clpOebeqkgwfnUP-173">
          <mxGeometry x="1" relative="1" as="geometry">
            <mxPoint x="5" y="88" as="offset" />
          </mxGeometry>
        </mxCell>
        <mxCell id="AKQ19clpOebeqkgwfnUP-175" value="User-ID" style="ellipse;whiteSpace=wrap;html=1;align=center;fillColor=#f8cecc;gradientColor=#ea6b66;strokeColor=#1F0E0D;textShadow=0;labelBorderColor=none;" vertex="1" parent="WIyWlLk6GJQsqaUBKTNV-1">
          <mxGeometry x="105" y="744.32" width="59" height="40" as="geometry" />
        </mxCell>
        <mxCell id="AKQ19clpOebeqkgwfnUP-176" value="Invoice-ID" style="ellipse;whiteSpace=wrap;html=1;align=center;fontStyle=4;fillColor=#f8cecc;gradientColor=#ea6b66;strokeColor=#b85450;strokeWidth=1;" vertex="1" parent="WIyWlLk6GJQsqaUBKTNV-1">
          <mxGeometry x="304" y="784.32" width="68" height="30" as="geometry" />
        </mxCell>
        <mxCell id="AKQ19clpOebeqkgwfnUP-177" value="User-ID" style="ellipse;whiteSpace=wrap;html=1;align=center;fillColor=#f8cecc;gradientColor=#ea6b66;strokeColor=#1F0E0D;textShadow=0;labelBorderColor=none;" vertex="1" parent="WIyWlLk6GJQsqaUBKTNV-1">
          <mxGeometry x="105" y="671.32" width="59" height="40" as="geometry" />
        </mxCell>
        <mxCell id="AKQ19clpOebeqkgwfnUP-178" value="User-ID" style="ellipse;whiteSpace=wrap;html=1;align=center;fillColor=#f8cecc;gradientColor=#ea6b66;strokeColor=#1F0E0D;" vertex="1" parent="WIyWlLk6GJQsqaUBKTNV-1">
          <mxGeometry x="160" y="792.32" width="59" height="40" as="geometry" />
        </mxCell>
        <mxCell id="AKQ19clpOebeqkgwfnUP-179" value="User-ID" style="ellipse;whiteSpace=wrap;html=1;align=center;fillColor=#f8cecc;gradientColor=#ea6b66;strokeColor=#1F0E0D;" vertex="1" parent="WIyWlLk6GJQsqaUBKTNV-1">
          <mxGeometry x="237" y="792.32" width="59" height="40" as="geometry" />
        </mxCell>
        <mxCell id="AKQ19clpOebeqkgwfnUP-180" value="" style="endArrow=none;html=1;rounded=0;entryX=0;entryY=0.5;entryDx=0;entryDy=0;textShadow=0;labelBorderColor=none;" edge="1" parent="WIyWlLk6GJQsqaUBKTNV-1" target="AKQ19clpOebeqkgwfnUP-78">
          <mxGeometry relative="1" as="geometry">
            <mxPoint x="164" y="692.07" as="sourcePoint" />
            <mxPoint x="185" y="685.32" as="targetPoint" />
          </mxGeometry>
        </mxCell>
        <mxCell id="AKQ19clpOebeqkgwfnUP-181" value="" style="endArrow=none;html=1;rounded=0;entryX=0.75;entryY=1;entryDx=0;entryDy=0;exitX=0;exitY=0;exitDx=0;exitDy=0;textShadow=0;labelBorderColor=none;" edge="1" parent="WIyWlLk6GJQsqaUBKTNV-1" source="AKQ19clpOebeqkgwfnUP-176" target="AKQ19clpOebeqkgwfnUP-78">
          <mxGeometry relative="1" as="geometry">
            <mxPoint x="173" y="701.07" as="sourcePoint" />
            <mxPoint x="194" y="704.32" as="targetPoint" />
          </mxGeometry>
        </mxCell>
        <mxCell id="AKQ19clpOebeqkgwfnUP-182" value="" style="endArrow=none;html=1;rounded=0;entryX=0.25;entryY=1;entryDx=0;entryDy=0;exitX=0.593;exitY=0;exitDx=0;exitDy=0;exitPerimeter=0;textShadow=0;labelBorderColor=none;" edge="1" parent="WIyWlLk6GJQsqaUBKTNV-1" source="AKQ19clpOebeqkgwfnUP-178" target="AKQ19clpOebeqkgwfnUP-78">
          <mxGeometry relative="1" as="geometry">
            <mxPoint x="192" y="789.32" as="sourcePoint" />
            <mxPoint x="203" y="713.32" as="targetPoint" />
          </mxGeometry>
        </mxCell>
        <mxCell id="AKQ19clpOebeqkgwfnUP-183" value="" style="endArrow=none;html=1;rounded=0;exitX=1;exitY=0;exitDx=0;exitDy=0;textShadow=0;labelBorderColor=none;" edge="1" parent="WIyWlLk6GJQsqaUBKTNV-1" source="AKQ19clpOebeqkgwfnUP-175">
          <mxGeometry relative="1" as="geometry">
            <mxPoint x="191" y="719.07" as="sourcePoint" />
            <mxPoint x="199" y="715.32" as="targetPoint" />
          </mxGeometry>
        </mxCell>
        <mxCell id="AKQ19clpOebeqkgwfnUP-184" value="" style="endArrow=none;html=1;rounded=0;entryX=0.592;entryY=0.95;entryDx=0;entryDy=0;entryPerimeter=0;exitX=0.38;exitY=0.025;exitDx=0;exitDy=0;exitPerimeter=0;textShadow=0;labelBorderColor=none;" edge="1" parent="WIyWlLk6GJQsqaUBKTNV-1" source="AKQ19clpOebeqkgwfnUP-179" target="AKQ19clpOebeqkgwfnUP-78">
          <mxGeometry relative="1" as="geometry">
            <mxPoint x="259" y="787.32" as="sourcePoint" />
            <mxPoint x="212" y="722.32" as="targetPoint" />
          </mxGeometry>
        </mxCell>
        <mxCell id="AKQ19clpOebeqkgwfnUP-185" value="R-ID" style="ellipse;whiteSpace=wrap;html=1;align=center;fontStyle=4;fillColor=#f8cecc;gradientColor=#ea6b66;strokeColor=#b85450;strokeWidth=1;textShadow=0;labelBorderColor=none;" vertex="1" parent="WIyWlLk6GJQsqaUBKTNV-1">
          <mxGeometry x="504" y="661.32" width="45" height="30" as="geometry" />
        </mxCell>
        <mxCell id="AKQ19clpOebeqkgwfnUP-186" value="U-ID" style="ellipse;whiteSpace=wrap;html=1;align=center;fillColor=#f8cecc;gradientColor=#ea6b66;strokeColor=#1F0E0D;textShadow=0;labelBorderColor=none;" vertex="1" parent="WIyWlLk6GJQsqaUBKTNV-1">
          <mxGeometry x="509" y="711.32" width="40" height="40" as="geometry" />
        </mxCell>
        <mxCell id="AKQ19clpOebeqkgwfnUP-187" value="Comment" style="ellipse;whiteSpace=wrap;html=1;align=center;fillColor=#f8cecc;gradientColor=#ea6b66;strokeColor=#1F0E0D;textShadow=0;labelBorderColor=none;" vertex="1" parent="WIyWlLk6GJQsqaUBKTNV-1">
          <mxGeometry x="317" y="685.32" width="59" height="40" as="geometry" />
        </mxCell>
        <mxCell id="AKQ19clpOebeqkgwfnUP-188" value="Rating" style="ellipse;whiteSpace=wrap;html=1;align=center;fillColor=#f8cecc;gradientColor=#ea6b66;strokeColor=#1F0E0D;textShadow=0;labelBorderColor=none;" vertex="1" parent="WIyWlLk6GJQsqaUBKTNV-1">
          <mxGeometry x="372" y="736.32" width="59" height="40" as="geometry" />
        </mxCell>
        <mxCell id="AKQ19clpOebeqkgwfnUP-189" value="S-ID" style="ellipse;whiteSpace=wrap;html=1;align=center;fillColor=#f8cecc;gradientColor=#ea6b66;strokeColor=#1F0E0D;textShadow=0;labelBorderColor=none;" vertex="1" parent="WIyWlLk6GJQsqaUBKTNV-1">
          <mxGeometry x="453" y="739.32" width="45" height="40" as="geometry" />
        </mxCell>
        <mxCell id="AKQ19clpOebeqkgwfnUP-190" value="" style="endArrow=none;html=1;rounded=0;exitX=0.5;exitY=0;exitDx=0;exitDy=0;entryX=0.25;entryY=1;entryDx=0;entryDy=0;textShadow=0;labelBorderColor=none;" edge="1" parent="WIyWlLk6GJQsqaUBKTNV-1" source="AKQ19clpOebeqkgwfnUP-188">
          <mxGeometry relative="1" as="geometry">
            <mxPoint x="394.5" y="733.32" as="sourcePoint" />
            <mxPoint x="408.5" y="651.32" as="targetPoint" />
          </mxGeometry>
        </mxCell>
        <mxCell id="AKQ19clpOebeqkgwfnUP-191" value="" style="endArrow=none;html=1;rounded=0;exitX=0.637;exitY=0.04;exitDx=0;exitDy=0;entryX=0.25;entryY=1;entryDx=0;entryDy=0;exitPerimeter=0;textShadow=0;labelBorderColor=none;" edge="1" parent="WIyWlLk6GJQsqaUBKTNV-1" source="AKQ19clpOebeqkgwfnUP-187">
          <mxGeometry relative="1" as="geometry">
            <mxPoint x="372" y="736.32" as="sourcePoint" />
            <mxPoint x="378.5" y="651.32" as="targetPoint" />
          </mxGeometry>
        </mxCell>
        <mxCell id="AKQ19clpOebeqkgwfnUP-192" value="" style="endArrow=none;html=1;rounded=0;exitX=0;exitY=0;exitDx=0;exitDy=0;entryX=0.25;entryY=1;entryDx=0;entryDy=0;textShadow=0;labelBorderColor=none;" edge="1" parent="WIyWlLk6GJQsqaUBKTNV-1" source="AKQ19clpOebeqkgwfnUP-189">
          <mxGeometry relative="1" as="geometry">
            <mxPoint x="429" y="736.32" as="sourcePoint" />
            <mxPoint x="435.5" y="651.32" as="targetPoint" />
          </mxGeometry>
        </mxCell>
        <mxCell id="AKQ19clpOebeqkgwfnUP-193" value="" style="endArrow=none;html=1;rounded=0;exitX=0;exitY=0;exitDx=0;exitDy=0;entryX=0.25;entryY=1;entryDx=0;entryDy=0;textShadow=0;labelBorderColor=none;" edge="1" parent="WIyWlLk6GJQsqaUBKTNV-1" source="AKQ19clpOebeqkgwfnUP-186">
          <mxGeometry relative="1" as="geometry">
            <mxPoint x="446.5" y="736.32" as="sourcePoint" />
            <mxPoint x="453" y="651.32" as="targetPoint" />
          </mxGeometry>
        </mxCell>
        <mxCell id="AKQ19clpOebeqkgwfnUP-194" value="" style="endArrow=none;html=1;rounded=0;exitX=0;exitY=0.5;exitDx=0;exitDy=0;entryX=1;entryY=1;entryDx=0;entryDy=0;textShadow=0;labelBorderColor=none;" edge="1" parent="WIyWlLk6GJQsqaUBKTNV-1" source="AKQ19clpOebeqkgwfnUP-185" target="AKQ19clpOebeqkgwfnUP-74">
          <mxGeometry relative="1" as="geometry">
            <mxPoint x="438" y="772.32" as="sourcePoint" />
            <mxPoint x="444.5" y="687.32" as="targetPoint" />
          </mxGeometry>
        </mxCell>
        <mxCell id="AKQ19clpOebeqkgwfnUP-197" value="B-ID" style="ellipse;whiteSpace=wrap;html=1;align=center;fontStyle=4;fillColor=#f8cecc;gradientColor=#ea6b66;strokeColor=#1F0E0D;textShadow=0;labelBorderColor=none;" vertex="1" parent="WIyWlLk6GJQsqaUBKTNV-1">
          <mxGeometry x="773" y="413.00000000000006" width="54" height="33" as="geometry" />
        </mxCell>
        <mxCell id="AKQ19clpOebeqkgwfnUP-198" value="S-ID" style="ellipse;whiteSpace=wrap;html=1;align=center;fillColor=#f8cecc;gradientColor=#ea6b66;strokeColor=#1F0E0D;textShadow=0;labelBorderColor=none;" vertex="1" parent="WIyWlLk6GJQsqaUBKTNV-1">
          <mxGeometry x="716" y="467.00000000000006" width="50" height="40" as="geometry" />
        </mxCell>
        <mxCell id="AKQ19clpOebeqkgwfnUP-199" value="U-ID" style="ellipse;whiteSpace=wrap;html=1;align=center;fillColor=#f8cecc;gradientColor=#ea6b66;strokeColor=#1F0E0D;textShadow=0;labelBorderColor=none;" vertex="1" parent="WIyWlLk6GJQsqaUBKTNV-1">
          <mxGeometry x="777" y="457.56000000000006" width="50" height="40" as="geometry" />
        </mxCell>
        <mxCell id="AKQ19clpOebeqkgwfnUP-200" value="Date" style="ellipse;whiteSpace=wrap;html=1;align=center;fillColor=#f8cecc;gradientColor=#ea6b66;strokeColor=#1F0E0D;textShadow=0;labelBorderColor=none;" vertex="1" parent="WIyWlLk6GJQsqaUBKTNV-1">
          <mxGeometry x="599.5" y="476.07000000000005" width="50" height="40" as="geometry" />
        </mxCell>
        <mxCell id="AKQ19clpOebeqkgwfnUP-201" value="Status" style="ellipse;whiteSpace=wrap;html=1;align=center;fillColor=#f8cecc;gradientColor=#ea6b66;strokeColor=#1F0E0D;textShadow=0;labelBorderColor=none;" vertex="1" parent="WIyWlLk6GJQsqaUBKTNV-1">
          <mxGeometry x="581" y="422.32000000000005" width="50" height="40" as="geometry" />
        </mxCell>
        <mxCell id="AKQ19clpOebeqkgwfnUP-203" value="" style="endArrow=none;html=1;rounded=0;exitX=-0.007;exitY=0.285;exitDx=0;exitDy=0;entryX=0.858;entryY=0.98;entryDx=0;entryDy=0;entryPerimeter=0;exitPerimeter=0;textShadow=0;labelBorderColor=none;" edge="1" parent="WIyWlLk6GJQsqaUBKTNV-1" source="AKQ19clpOebeqkgwfnUP-197">
          <mxGeometry relative="1" as="geometry">
            <mxPoint x="768" y="474.32" as="sourcePoint" />
            <mxPoint x="738" y="410.32" as="targetPoint" />
          </mxGeometry>
        </mxCell>
        <mxCell id="AKQ19clpOebeqkgwfnUP-204" value="" style="endArrow=none;html=1;rounded=0;exitX=1;exitY=0;exitDx=0;exitDy=0;entryX=0.858;entryY=0.98;entryDx=0;entryDy=0;entryPerimeter=0;textShadow=0;labelBorderColor=none;" edge="1" parent="WIyWlLk6GJQsqaUBKTNV-1" source="AKQ19clpOebeqkgwfnUP-201">
          <mxGeometry relative="1" as="geometry">
            <mxPoint x="683" y="428.82" as="sourcePoint" />
            <mxPoint x="648" y="417.14" as="targetPoint" />
          </mxGeometry>
        </mxCell>
        <mxCell id="AKQ19clpOebeqkgwfnUP-205" value="" style="endArrow=none;html=1;rounded=0;exitX=0;exitY=0;exitDx=0;exitDy=0;entryX=1;entryY=1;entryDx=0;entryDy=0;textShadow=0;labelBorderColor=none;" edge="1" parent="WIyWlLk6GJQsqaUBKTNV-1" source="AKQ19clpOebeqkgwfnUP-199" target="AKQ19clpOebeqkgwfnUP-72">
          <mxGeometry relative="1" as="geometry">
            <mxPoint x="791" y="440" as="sourcePoint" />
            <mxPoint x="756" y="428.32" as="targetPoint" />
          </mxGeometry>
        </mxCell>
        <mxCell id="AKQ19clpOebeqkgwfnUP-206" value="" style="endArrow=none;html=1;rounded=0;entryX=0.75;entryY=1;entryDx=0;entryDy=0;textShadow=0;labelBorderColor=none;" edge="1" parent="WIyWlLk6GJQsqaUBKTNV-1" source="AKQ19clpOebeqkgwfnUP-198" target="AKQ19clpOebeqkgwfnUP-72">
          <mxGeometry relative="1" as="geometry">
            <mxPoint x="800" y="449" as="sourcePoint" />
            <mxPoint x="765" y="437.32" as="targetPoint" />
          </mxGeometry>
        </mxCell>
        <mxCell id="AKQ19clpOebeqkgwfnUP-207" value="" style="endArrow=none;html=1;rounded=0;exitX=1;exitY=0;exitDx=0;exitDy=0;entryX=0.149;entryY=0.998;entryDx=0;entryDy=0;entryPerimeter=0;textShadow=0;labelBorderColor=none;" edge="1" parent="WIyWlLk6GJQsqaUBKTNV-1" source="AKQ19clpOebeqkgwfnUP-200" target="AKQ19clpOebeqkgwfnUP-72">
          <mxGeometry relative="1" as="geometry">
            <mxPoint x="809" y="458" as="sourcePoint" />
            <mxPoint x="774" y="446.32" as="targetPoint" />
          </mxGeometry>
        </mxCell>
        <mxCell id="AKQ19clpOebeqkgwfnUP-240" value="" style="shape=link;html=1;rounded=0;" edge="1" parent="WIyWlLk6GJQsqaUBKTNV-1">
          <mxGeometry width="100" relative="1" as="geometry">
            <mxPoint y="2" as="sourcePoint" />
            <mxPoint y="859" as="targetPoint" />
          </mxGeometry>
        </mxCell>
        <mxCell id="AKQ19clpOebeqkgwfnUP-241" value="" style="shape=link;html=1;rounded=0;" edge="1" parent="WIyWlLk6GJQsqaUBKTNV-1">
          <mxGeometry width="100" relative="1" as="geometry">
            <mxPoint x="1191" y="-1" as="sourcePoint" />
            <mxPoint x="1195" y="861" as="targetPoint" />
          </mxGeometry>
        </mxCell>
        <mxCell id="AKQ19clpOebeqkgwfnUP-242" value="" style="shape=link;html=1;rounded=0;" edge="1" parent="WIyWlLk6GJQsqaUBKTNV-1">
          <mxGeometry width="100" relative="1" as="geometry">
            <mxPoint x="-3" y="5" as="sourcePoint" />
            <mxPoint x="1195" y="2" as="targetPoint" />
          </mxGeometry>
        </mxCell>
        <mxCell id="AKQ19clpOebeqkgwfnUP-243" value="" style="shape=link;html=1;rounded=0;" edge="1" parent="WIyWlLk6GJQsqaUBKTNV-1">
          <mxGeometry width="100" relative="1" as="geometry">
            <mxPoint x="1197" y="859" as="sourcePoint" />
            <mxPoint x="0.5" y="859.32" as="targetPoint" />
          </mxGeometry>
        </mxCell>
      </root>
    </mxGraphModel>
  </diagram>
</mxfile>
